<svg width="16" height="16" viewBox="0 0 16 16" fill="none" xmlns="http://www.w3.org/2000/svg">
<g clip-path="url(#clip0_490_205)">
<path d="M11.7662 4.23334C10.7995 3.26667 9.47285 2.66667 7.99952 2.66667C5.05285 2.66667 2.67285 5.05334 2.67285 8.00001C2.67285 10.9467 5.05285 13.3333 7.99952 13.3333C10.1707 13.3333 12.0267 12.0374 12.8577 10.1776C13.0427 9.76364 12.7109 9.33334 12.2575 9.33334C11.9631 9.33334 11.7061 9.52208 11.5748 9.78554C10.9209 11.0982 9.56549 12 7.99952 12C5.79285 12 3.99952 10.2067 3.99952 8.00001C3.99952 5.79334 5.79285 4.00001 7.99952 4.00001C9.10618 4.00001 10.0929 4.46001 10.8129 5.18667L9.80426 6.19527C9.38428 6.61524 9.68172 7.33334 10.2757 7.33334H12.6662C13.0344 7.33334 13.3329 7.03486 13.3329 6.66667V4.27615C13.3329 3.68221 12.6148 3.38477 12.1948 3.80474L11.7662 4.23334Z" fill="white"/>
</g>
<defs>
<clipPath id="clip0_490_205">
<rect width="16" height="16" fill="white"/>
</clipPath>
</defs>
</svg>
