<svg width="348" height="171" viewBox="0 0 348 171" fill="none" xmlns="http://www.w3.org/2000/svg">
<path d="M20.952 70.4C36.552 69.536 48.648 68.576 57.24 67.52C56.424 70.016 55.8 72.656 55.368 75.44C54.936 78.224 54.72 80.744 54.72 83H3.24L3.168 81.488C3.168 76.784 4.536 72.704 7.272 69.248C10.056 65.792 13.92 62.6 18.864 59.672C20.304 58.808 22.56 57.704 25.632 56.36C29.616 54.632 32.688 53.12 34.848 51.824C37.008 50.48 38.088 49.16 38.088 47.864C38.088 46.232 37.416 44.936 36.072 43.976C34.728 43.016 32.64 42.536 29.808 42.536C26.688 42.536 24.312 43.328 22.68 44.912C21.096 46.496 20.304 48.512 20.304 50.96C20.304 51.728 20.376 52.52 20.52 53.336C14.472 52.568 8.592 52.04 2.88 51.752C2.88 47.672 3.936 44 6.048 40.736C8.208 37.424 11.424 34.808 15.696 32.888C20.016 30.968 25.296 30.008 31.536 30.008C37.248 30.008 42 30.8 45.792 32.384C49.632 33.92 52.44 35.888 54.216 38.288C56.04 40.64 56.952 43.064 56.952 45.56C56.952 48.44 56.304 50.912 55.008 52.976C53.76 55.04 51.936 56.888 49.536 58.52C47.184 60.104 44.016 61.832 40.032 63.704C39.456 63.992 38.52 64.328 37.224 64.712C35.928 65.048 35.112 65.264 34.776 65.36C31.368 66.368 28.656 67.208 26.64 67.88C24.624 68.552 22.728 69.392 20.952 70.4ZM93.1652 83.72C82.8452 83.72 75.2372 81.344 70.3412 76.592C65.4452 71.84 62.9972 65.24 62.9972 56.792C62.9972 48.392 65.4452 41.84 70.3412 37.136C75.2852 32.384 82.8932 30.008 93.1652 30.008C103.437 30.008 111.021 32.384 115.917 37.136C120.813 41.84 123.261 48.392 123.261 56.792C123.261 65.24 120.813 71.84 115.917 76.592C111.021 81.344 103.437 83.72 93.1652 83.72ZM93.2372 71.12C97.6532 71.12 100.869 69.776 102.885 67.088C104.901 64.352 105.909 60.92 105.909 56.792C105.909 52.712 104.901 49.328 102.885 46.64C100.869 43.904 97.6532 42.536 93.2372 42.536C88.6772 42.536 85.3652 43.904 83.3012 46.64C81.2852 49.328 80.2772 52.712 80.2772 56.792C80.2772 60.872 81.2852 64.28 83.3012 67.016C85.3652 69.752 88.6772 71.12 93.2372 71.12ZM147.093 70.4C162.693 69.536 174.789 68.576 183.381 67.52C182.565 70.016 181.941 72.656 181.509 75.44C181.077 78.224 180.861 80.744 180.861 83H129.381L129.309 81.488C129.309 76.784 130.677 72.704 133.413 69.248C136.197 65.792 140.061 62.6 145.005 59.672C146.445 58.808 148.701 57.704 151.773 56.36C155.757 54.632 158.829 53.12 160.989 51.824C163.149 50.48 164.229 49.16 164.229 47.864C164.229 46.232 163.557 44.936 162.213 43.976C160.869 43.016 158.781 42.536 155.949 42.536C152.829 42.536 150.453 43.328 148.821 44.912C147.237 46.496 146.445 48.512 146.445 50.96C146.445 51.728 146.517 52.52 146.661 53.336C140.613 52.568 134.733 52.04 129.021 51.752C129.021 47.672 130.077 44 132.189 40.736C134.349 37.424 137.565 34.808 141.837 32.888C146.157 30.968 151.437 30.008 157.677 30.008C163.389 30.008 168.141 30.8 171.933 32.384C175.773 33.92 178.581 35.888 180.357 38.288C182.181 40.64 183.093 43.064 183.093 45.56C183.093 48.44 182.445 50.912 181.149 52.976C179.901 55.04 178.077 56.888 175.677 58.52C173.325 60.104 170.157 61.832 166.173 63.704C165.597 63.992 164.661 64.328 163.365 64.712C162.069 65.048 161.253 65.264 160.917 65.36C157.509 66.368 154.797 67.208 152.781 67.88C150.765 68.552 148.869 69.392 147.093 70.4ZM219.306 83.72C208.986 83.72 201.378 81.344 196.482 76.592C191.586 71.84 189.138 65.24 189.138 56.792C189.138 48.392 191.586 41.84 196.482 37.136C201.426 32.384 209.034 30.008 219.306 30.008C229.578 30.008 237.162 32.384 242.058 37.136C246.954 41.84 249.402 48.392 249.402 56.792C249.402 65.24 246.954 71.84 242.058 76.592C237.162 81.344 229.578 83.72 219.306 83.72ZM219.378 71.12C223.794 71.12 227.01 69.776 229.026 67.088C231.042 64.352 232.05 60.92 232.05 56.792C232.05 52.712 231.042 49.328 229.026 46.64C227.01 43.904 223.794 42.536 219.378 42.536C214.818 42.536 211.506 43.904 209.442 46.64C207.426 49.328 206.418 52.712 206.418 56.792C206.418 60.872 207.426 64.28 209.442 67.016C211.506 69.752 214.818 71.12 219.378 71.12Z" fill="url(#paint0_linear_464_3288)"/>
<path d="M13.832 105.7C17.5467 105.7 20.132 106.363 21.588 107.688C23.044 108.995 23.772 110.843 23.772 113.232C23.772 114.875 23.4827 116.275 22.904 117.432C22.3253 118.571 21.308 119.467 19.852 120.12C18.396 120.755 16.3893 121.072 13.832 121.072H8.008V126H1.12C1.26933 122.379 1.344 118.991 1.344 115.836C1.344 112.681 1.26933 109.293 1.12 105.672H8.008V105.7H13.832ZM11.872 115.668C13.4213 115.668 14.5787 115.612 15.344 115.5C16.128 115.369 16.6693 115.145 16.968 114.828C17.2853 114.511 17.444 114.044 17.444 113.428C17.444 112.812 17.2947 112.355 16.996 112.056C16.716 111.739 16.184 111.524 15.4 111.412C14.6347 111.3 13.4587 111.244 11.872 111.244H8.008V115.668H11.872ZM32.4988 114.856C33.2828 112.037 35.2335 110.628 38.3508 110.628C38.8921 110.628 39.4148 110.665 39.9188 110.74L39.0228 117.012C37.6788 116.508 36.5775 116.256 35.7188 116.256C34.6548 116.256 33.8708 116.573 33.3668 117.208C32.8628 117.843 32.6108 118.692 32.6108 119.756V119.728L32.5828 121.576C32.5828 122.901 32.6201 124.376 32.6948 126H26.0028C26.1521 123.312 26.2268 120.773 26.2268 118.384C26.2268 115.995 26.1521 113.437 26.0028 110.712C27.2348 110.768 28.1775 110.796 28.8308 110.796C29.5215 110.796 30.4641 110.768 31.6588 110.712L32.4988 114.856ZM56.1273 119H46.9993C47.1486 119.821 47.5126 120.493 48.0913 121.016C48.6886 121.52 49.5286 121.772 50.6113 121.772C51.3953 121.772 52.1326 121.623 52.8233 121.324C53.514 121.007 54.0646 120.568 54.4753 120.008C55.726 120.624 57.3873 121.287 59.4593 121.996C58.8806 123.303 57.826 124.348 56.2953 125.132C54.7833 125.897 52.8046 126.28 50.3593 126.28C47.186 126.28 44.834 125.552 43.3033 124.096C41.7913 122.621 41.0353 120.689 41.0353 118.3C41.0353 115.967 41.7913 114.072 43.3033 112.616C44.8153 111.16 47.1673 110.432 50.3593 110.432C52.2633 110.432 53.9153 110.749 55.3153 111.384C56.7153 112.019 57.7886 112.905 58.5353 114.044C59.282 115.164 59.6553 116.452 59.6553 117.908C59.6553 118.393 59.6366 118.757 59.5993 119H56.1273ZM50.7513 114.66C49.818 114.66 49.0526 114.837 48.4553 115.192C47.858 115.547 47.438 116.032 47.1953 116.648H53.8033C53.5793 116.051 53.2153 115.575 52.7113 115.22C52.2073 114.847 51.554 114.66 50.7513 114.66ZM70.6484 126.28C69.0804 126.28 67.4844 126.065 65.8604 125.636C64.255 125.188 62.743 124.516 61.3244 123.62L64.2644 119.616C65.123 120.232 66.159 120.717 67.3724 121.072C68.5857 121.408 69.631 121.576 70.5084 121.576C71.3484 121.576 71.9924 121.464 72.4404 121.24C72.907 120.997 73.1404 120.689 73.1404 120.316C73.1404 120.017 73.0284 119.784 72.8044 119.616C72.5804 119.448 72.2724 119.364 71.8804 119.364C71.6377 119.364 71.3577 119.373 71.0404 119.392C70.7417 119.411 70.499 119.429 70.3124 119.448C69.3417 119.56 68.343 119.616 67.3164 119.616C65.655 119.616 64.3017 119.308 63.2564 118.692C62.2297 118.057 61.7164 117.031 61.7164 115.612C61.7164 113.969 62.491 112.7 64.0404 111.804C65.5897 110.889 67.867 110.432 70.8724 110.432C72.347 110.432 73.831 110.647 75.3244 111.076C76.8364 111.487 78.171 112.112 79.3284 112.952L76.1084 116.2C75.0444 115.64 74.0457 115.248 73.1124 115.024C72.1977 114.781 71.2737 114.66 70.3404 114.66C69.687 114.66 69.127 114.791 68.6604 115.052C68.1937 115.313 67.9604 115.612 67.9604 115.948C67.9604 116.209 68.0537 116.415 68.2404 116.564C68.4457 116.713 68.707 116.788 69.0244 116.788C69.3417 116.788 69.7804 116.76 70.3404 116.704C71.703 116.611 72.7204 116.564 73.3924 116.564C75.3337 116.564 76.8364 116.891 77.9004 117.544C78.9644 118.197 79.4964 119.196 79.4964 120.54C79.4964 122.556 78.7124 124.021 77.1444 124.936C75.5764 125.832 73.411 126.28 70.6484 126.28ZM85.2079 109.06C84.0319 109.06 83.1546 108.771 82.5759 108.192C82.0159 107.613 81.7359 106.857 81.7359 105.924C81.7359 105.009 82.0159 104.253 82.5759 103.656C83.1546 103.059 84.0319 102.76 85.2079 102.76C86.3279 102.76 87.1866 103.068 87.7839 103.684C88.3813 104.281 88.6799 105.028 88.6799 105.924C88.6799 106.857 88.3906 107.613 87.8119 108.192C87.2333 108.771 86.3653 109.06 85.2079 109.06ZM81.9599 126C82.0906 122.995 82.1559 120.512 82.1559 118.552C82.1559 116.219 82.0813 113.605 81.9319 110.712H88.6519C88.5026 113.493 88.4279 116.107 88.4279 118.552C88.4279 120.605 88.4933 123.088 88.6239 126H81.9599ZM109.502 104.216C109.39 107.688 109.334 111.319 109.334 115.108C109.334 118.86 109.39 122.491 109.502 126H103.174L103.258 122.64C102.717 123.891 101.933 124.815 100.906 125.412C99.8796 125.991 98.6663 126.28 97.2663 126.28C96.053 126.28 94.961 125.935 93.9903 125.244C93.0196 124.553 92.2636 123.62 91.7223 122.444C91.181 121.249 90.9103 119.943 90.9103 118.524C90.9103 117.124 91.181 115.808 91.7223 114.576C92.2636 113.325 93.0196 112.327 93.9903 111.58C94.9796 110.815 96.0996 110.432 97.3503 110.432C98.8063 110.432 100.048 110.74 101.074 111.356C102.12 111.953 102.894 112.887 103.398 114.156C103.398 113.092 103.361 111.384 103.286 109.032C103.212 106.755 103.174 105.149 103.174 104.216H109.502ZM100.206 121.576C101.121 121.576 101.868 121.324 102.446 120.82C103.025 120.297 103.314 119.476 103.314 118.356C103.314 117.367 103.025 116.639 102.446 116.172C101.868 115.705 101.14 115.472 100.262 115.472C99.4223 115.472 98.713 115.743 98.1343 116.284C97.5743 116.807 97.2943 117.497 97.2943 118.356C97.2943 119.308 97.5556 120.083 98.0783 120.68C98.601 121.277 99.3103 121.576 100.206 121.576ZM126.565 119H117.437C117.586 119.821 117.95 120.493 118.529 121.016C119.126 121.52 119.966 121.772 121.049 121.772C121.833 121.772 122.57 121.623 123.261 121.324C123.951 121.007 124.502 120.568 124.913 120.008C126.163 120.624 127.825 121.287 129.897 121.996C129.318 123.303 128.263 124.348 126.733 125.132C125.221 125.897 123.242 126.28 120.797 126.28C117.623 126.28 115.271 125.552 113.741 124.096C112.229 122.621 111.473 120.689 111.473 118.3C111.473 115.967 112.229 114.072 113.741 112.616C115.253 111.16 117.605 110.432 120.797 110.432C122.701 110.432 124.353 110.749 125.753 111.384C127.153 112.019 128.226 112.905 128.973 114.044C129.719 115.164 130.093 116.452 130.093 117.908C130.093 118.393 130.074 118.757 130.037 119H126.565ZM121.189 114.66C120.255 114.66 119.49 114.837 118.893 115.192C118.295 115.547 117.875 116.032 117.633 116.648H124.241C124.017 116.051 123.653 115.575 123.149 115.22C122.645 114.847 121.991 114.66 121.189 114.66ZM142.962 126C143.074 123.256 143.13 120.727 143.13 118.412C143.13 117.591 142.925 116.937 142.514 116.452C142.122 115.967 141.618 115.724 141.002 115.724C140.386 115.724 139.863 116.004 139.434 116.564C139.005 117.105 138.753 117.852 138.678 118.804C138.641 120.223 138.622 121.231 138.622 121.828C138.622 123.097 138.659 124.488 138.734 126H132.042C132.191 123.312 132.266 120.773 132.266 118.384C132.266 115.995 132.191 113.437 132.042 110.712C133.274 110.768 134.217 110.796 134.87 110.796C135.561 110.796 136.503 110.768 137.698 110.712L138.51 114.828C138.939 113.335 139.611 112.233 140.526 111.524C141.441 110.796 142.505 110.432 143.718 110.432C144.838 110.432 145.809 110.684 146.63 111.188C147.451 111.673 148.067 112.336 148.478 113.176C148.907 114.016 149.122 114.959 149.122 116.004V120.036C149.122 122.519 149.169 124.507 149.262 126H142.962ZM164.195 115.724C162.477 115.612 160.909 115.528 159.491 115.472L159.463 118.44C159.463 119.448 159.677 120.241 160.107 120.82C160.555 121.38 161.339 121.66 162.459 121.66C162.888 121.66 163.299 121.623 163.691 121.548C163.616 122.239 163.579 122.939 163.579 123.648C163.579 123.984 163.597 124.749 163.635 125.944C162.813 126.093 162.123 126.187 161.563 126.224C161.003 126.261 160.275 126.28 159.379 126.28C157.195 126.28 155.645 125.757 154.731 124.712C153.835 123.648 153.387 122.173 153.387 120.288L153.415 115.556C152.537 115.593 151.623 115.649 150.671 115.724V110.768C151.641 110.768 152.463 110.46 153.135 109.844C153.807 109.228 154.208 108.491 154.339 107.632H161.955C161.003 108.939 159.948 109.984 158.791 110.768H164.195V115.724ZM169.618 109.06C168.442 109.06 167.565 108.771 166.986 108.192C166.426 107.613 166.146 106.857 166.146 105.924C166.146 105.009 166.426 104.253 166.986 103.656C167.565 103.059 168.442 102.76 169.618 102.76C170.738 102.76 171.597 103.068 172.194 103.684C172.791 104.281 173.09 105.028 173.09 105.924C173.09 106.857 172.801 107.613 172.222 108.192C171.643 108.771 170.775 109.06 169.618 109.06ZM166.37 126C166.501 122.995 166.566 120.512 166.566 118.552C166.566 116.219 166.491 113.605 166.342 110.712H173.062C172.913 113.493 172.838 116.107 172.838 118.552C172.838 120.605 172.903 123.088 173.034 126H166.37ZM193.548 121.352C193.548 121.987 193.623 122.435 193.772 122.696C193.922 122.957 194.22 123.144 194.668 123.256L194.556 125.888C193.959 125.981 193.436 126.047 192.988 126.084C192.559 126.121 191.98 126.14 191.252 126.14C189.647 126.14 188.583 125.785 188.06 125.076C187.538 124.348 187.276 123.424 187.276 122.304V121.604C186.735 123.135 185.942 124.273 184.896 125.02C183.87 125.767 182.554 126.14 180.948 126.14C179.082 126.14 177.672 125.767 176.72 125.02C175.787 124.273 175.32 123.163 175.32 121.688C175.32 120.475 175.722 119.523 176.524 118.832C177.327 118.141 178.568 117.665 180.248 117.404C178.83 116.396 177.411 115.519 175.992 114.772C177.112 113.353 178.391 112.28 179.828 111.552C181.266 110.805 183.011 110.432 185.064 110.432C187.939 110.432 190.067 111.057 191.448 112.308C192.848 113.54 193.548 115.444 193.548 118.02V121.352ZM185.652 115.36C184.7 115.36 183.86 115.519 183.132 115.836C182.404 116.153 181.751 116.629 181.172 117.264C182.292 117.133 183.692 117.068 185.372 117.068C186.063 117.068 186.548 116.984 186.828 116.816C187.108 116.648 187.248 116.433 187.248 116.172C187.248 115.948 187.108 115.761 186.828 115.612C186.548 115.444 186.156 115.36 185.652 115.36ZM182.712 121.576C183.758 121.576 184.7 121.38 185.54 120.988C186.38 120.577 186.959 120.045 187.276 119.392V118.664C186.828 118.888 186.334 119.065 185.792 119.196C185.251 119.308 184.598 119.42 183.832 119.532L182.824 119.7C181.779 119.905 181.256 120.26 181.256 120.764C181.256 121.305 181.742 121.576 182.712 121.576ZM202.934 114.8C202.916 115.92 202.906 117.637 202.906 119.952C202.906 122.733 202.925 124.749 202.962 126H196.354L196.382 122.836C196.42 119.364 196.438 116.685 196.438 114.8C196.438 113.008 196.42 110.469 196.382 107.184L196.354 104.16H202.962C202.925 106.811 202.906 108.976 202.906 110.656C202.906 112.523 202.916 113.904 202.934 114.8ZM217.427 120.876C224.521 120.839 229.663 120.736 232.855 120.568C232.725 121.333 232.641 122.127 232.603 122.948C232.585 123.751 232.575 124.768 232.575 126H210.819C210.969 122.379 211.043 118.991 211.043 115.836C211.043 112.681 210.969 109.293 210.819 105.672H232.575V110.74H217.427V113.428C218.323 113.447 219.649 113.456 221.403 113.456C224.371 113.456 227.442 113.4 230.615 113.288V118.104C227.442 117.992 224.371 117.936 221.403 117.936C219.649 117.936 218.323 117.945 217.427 117.964V120.876ZM241.68 114.8C241.662 115.92 241.652 117.637 241.652 119.952C241.652 122.733 241.671 124.749 241.708 126H235.1L235.128 122.836C235.166 119.364 235.184 116.685 235.184 114.8C235.184 113.008 235.166 110.469 235.128 107.184L235.1 104.16H241.708C241.671 106.811 241.652 108.976 241.652 110.656C241.652 112.523 241.662 113.904 241.68 114.8ZM258.772 119H249.644C249.793 119.821 250.157 120.493 250.736 121.016C251.333 121.52 252.173 121.772 253.256 121.772C254.04 121.772 254.777 121.623 255.468 121.324C256.159 121.007 256.709 120.568 257.12 120.008C258.371 120.624 260.032 121.287 262.104 121.996C261.525 123.303 260.471 124.348 258.94 125.132C257.428 125.897 255.449 126.28 253.004 126.28C249.831 126.28 247.479 125.552 245.948 124.096C244.436 122.621 243.68 120.689 243.68 118.3C243.68 115.967 244.436 114.072 245.948 112.616C247.46 111.16 249.812 110.432 253.004 110.432C254.908 110.432 256.56 110.749 257.96 111.384C259.36 112.019 260.433 112.905 261.18 114.044C261.927 115.164 262.3 116.452 262.3 117.908C262.3 118.393 262.281 118.757 262.244 119H258.772ZM253.396 114.66C252.463 114.66 251.697 114.837 251.1 115.192C250.503 115.547 250.083 116.032 249.84 116.648H256.448C256.224 116.051 255.86 115.575 255.356 115.22C254.852 114.847 254.199 114.66 253.396 114.66ZM269.933 118.356C269.97 119.308 270.269 120.073 270.829 120.652C271.408 121.231 272.257 121.52 273.377 121.52C273.993 121.52 274.544 121.408 275.029 121.184C275.514 120.941 275.962 120.587 276.373 120.12C277.96 120.736 279.817 121.268 281.945 121.716C281.329 123.153 280.284 124.273 278.809 125.076C277.353 125.879 275.458 126.28 273.125 126.28C270.008 126.28 267.702 125.552 266.209 124.096C264.716 122.64 263.969 120.727 263.969 118.356C263.969 115.985 264.716 114.072 266.209 112.616C267.702 111.16 270.008 110.432 273.125 110.432C275.458 110.432 277.353 110.833 278.809 111.636C280.284 112.439 281.329 113.559 281.945 114.996C280.284 115.351 278.426 115.883 276.373 116.592C275.962 116.125 275.514 115.78 275.029 115.556C274.544 115.313 273.993 115.192 273.377 115.192C272.257 115.192 271.408 115.481 270.829 116.06C270.269 116.639 269.97 117.404 269.933 118.356ZM296.73 115.724C295.012 115.612 293.444 115.528 292.026 115.472L291.998 118.44C291.998 119.448 292.212 120.241 292.642 120.82C293.09 121.38 293.874 121.66 294.994 121.66C295.423 121.66 295.834 121.623 296.226 121.548C296.151 122.239 296.114 122.939 296.114 123.648C296.114 123.984 296.132 124.749 296.17 125.944C295.348 126.093 294.658 126.187 294.098 126.224C293.538 126.261 292.81 126.28 291.914 126.28C289.73 126.28 288.18 125.757 287.266 124.712C286.37 123.648 285.922 122.173 285.922 120.288L285.95 115.556C285.072 115.593 284.158 115.649 283.206 115.724V110.768C284.176 110.768 284.998 110.46 285.67 109.844C286.342 109.228 286.743 108.491 286.874 107.632H294.49C293.538 108.939 292.483 109.984 291.326 110.768H296.73V115.724ZM302.153 109.06C300.977 109.06 300.1 108.771 299.521 108.192C298.961 107.613 298.681 106.857 298.681 105.924C298.681 105.009 298.961 104.253 299.521 103.656C300.1 103.059 300.977 102.76 302.153 102.76C303.273 102.76 304.132 103.068 304.729 103.684C305.327 104.281 305.625 105.028 305.625 105.924C305.625 106.857 305.336 107.613 304.757 108.192C304.179 108.771 303.311 109.06 302.153 109.06ZM298.905 126C299.036 122.995 299.101 120.512 299.101 118.552C299.101 116.219 299.027 113.605 298.877 110.712H305.597C305.448 113.493 305.373 116.107 305.373 118.552C305.373 120.605 305.439 123.088 305.569 126H298.905ZM317.152 126.28C313.96 126.28 311.608 125.552 310.096 124.096C308.602 122.621 307.856 120.689 307.856 118.3C307.856 115.967 308.602 114.072 310.096 112.616C311.608 111.16 313.96 110.432 317.152 110.432C319.298 110.432 321.09 110.787 322.528 111.496C323.984 112.187 325.057 113.129 325.748 114.324C326.438 115.5 326.784 116.825 326.784 118.3C326.784 120.708 325.981 122.64 324.376 124.096C322.789 125.552 320.381 126.28 317.152 126.28ZM317.264 121.52C318.477 121.52 319.382 121.231 319.98 120.652C320.577 120.073 320.876 119.299 320.876 118.328C320.876 117.413 320.577 116.667 319.98 116.088C319.382 115.491 318.477 115.192 317.264 115.192C316.05 115.192 315.164 115.481 314.604 116.06C314.044 116.639 313.764 117.395 313.764 118.328C313.764 119.299 314.044 120.073 314.604 120.652C315.164 121.231 316.05 121.52 317.264 121.52ZM339.673 126C339.785 123.256 339.841 120.727 339.841 118.412C339.841 117.591 339.635 116.937 339.225 116.452C338.833 115.967 338.329 115.724 337.713 115.724C337.097 115.724 336.574 116.004 336.145 116.564C335.715 117.105 335.463 117.852 335.389 118.804C335.351 120.223 335.333 121.231 335.333 121.828C335.333 123.097 335.37 124.488 335.445 126H328.753C328.902 123.312 328.977 120.773 328.977 118.384C328.977 115.995 328.902 113.437 328.753 110.712C329.985 110.768 330.927 110.796 331.581 110.796C332.271 110.796 333.214 110.768 334.409 110.712L335.221 114.828C335.65 113.335 336.322 112.233 337.237 111.524C338.151 110.796 339.215 110.432 340.429 110.432C341.549 110.432 342.519 110.684 343.341 111.188C344.162 111.673 344.778 112.336 345.189 113.176C345.618 114.016 345.833 114.959 345.833 116.004V120.036C345.833 122.519 345.879 124.507 345.973 126H339.673Z" fill="url(#paint1_linear_464_3288)"/>
<path d="M25.172 148.552C22.2413 148.459 19.3947 148.403 16.632 148.384V163H9.632V148.384C6.85067 148.403 4.01333 148.459 1.12 148.552V142.672H25.172V148.552ZM42.0094 158.352C42.0094 158.987 42.0841 159.435 42.2334 159.696C42.3827 159.957 42.6814 160.144 43.1294 160.256L43.0174 162.888C42.4201 162.981 41.8974 163.047 41.4494 163.084C41.0201 163.121 40.4414 163.14 39.7134 163.14C38.1081 163.14 37.0441 162.785 36.5214 162.076C35.9987 161.348 35.7374 160.424 35.7374 159.304V158.604C35.1961 160.135 34.4027 161.273 33.3574 162.02C32.3307 162.767 31.0147 163.14 29.4094 163.14C27.5427 163.14 26.1334 162.767 25.1814 162.02C24.2481 161.273 23.7814 160.163 23.7814 158.688C23.7814 157.475 24.1827 156.523 24.9854 155.832C25.7881 155.141 27.0294 154.665 28.7094 154.404C27.2907 153.396 25.8721 152.519 24.4534 151.772C25.5734 150.353 26.8521 149.28 28.2894 148.552C29.7267 147.805 31.4721 147.432 33.5254 147.432C36.4001 147.432 38.5281 148.057 39.9094 149.308C41.3094 150.54 42.0094 152.444 42.0094 155.02V158.352ZM34.1134 152.36C33.1614 152.36 32.3214 152.519 31.5934 152.836C30.8654 153.153 30.2121 153.629 29.6334 154.264C30.7534 154.133 32.1534 154.068 33.8334 154.068C34.5241 154.068 35.0094 153.984 35.2894 153.816C35.5694 153.648 35.7094 153.433 35.7094 153.172C35.7094 152.948 35.5694 152.761 35.2894 152.612C35.0094 152.444 34.6174 152.36 34.1134 152.36ZM31.1734 158.576C32.2187 158.576 33.1614 158.38 34.0014 157.988C34.8414 157.577 35.4201 157.045 35.7374 156.392V155.664C35.2894 155.888 34.7947 156.065 34.2534 156.196C33.7121 156.308 33.0587 156.42 32.2934 156.532L31.2854 156.7C30.2401 156.905 29.7174 157.26 29.7174 157.764C29.7174 158.305 30.2027 158.576 31.1734 158.576ZM48.5673 146.06C47.3913 146.06 46.514 145.771 45.9353 145.192C45.3753 144.613 45.0953 143.857 45.0953 142.924C45.0953 142.009 45.3753 141.253 45.9353 140.656C46.514 140.059 47.3913 139.76 48.5673 139.76C49.6873 139.76 50.546 140.068 51.1433 140.684C51.7406 141.281 52.0393 142.028 52.0393 142.924C52.0393 143.857 51.75 144.613 51.1713 145.192C50.5926 145.771 49.7246 146.06 48.5673 146.06ZM45.3193 163C45.45 159.995 45.5153 157.512 45.5153 155.552C45.5153 153.219 45.4406 150.605 45.2913 147.712H52.0113C51.862 150.493 51.7873 153.107 51.7873 155.552C51.7873 157.605 51.8526 160.088 51.9833 163H45.3193ZM70.0897 158.688L72.4977 147.712H78.0697L74.9617 163H67.4857L65.7217 155.86L63.7337 163H56.5377L53.4297 147.712H59.0017L61.3817 158.66L63.0057 147.712H68.5217L70.0897 158.688ZM97.1344 158.352C97.1344 158.987 97.2091 159.435 97.3584 159.696C97.5077 159.957 97.8064 160.144 98.2544 160.256L98.1424 162.888C97.5451 162.981 97.0224 163.047 96.5744 163.084C96.1451 163.121 95.5664 163.14 94.8384 163.14C93.2331 163.14 92.1691 162.785 91.6464 162.076C91.1237 161.348 90.8624 160.424 90.8624 159.304V158.604C90.3211 160.135 89.5277 161.273 88.4824 162.02C87.4557 162.767 86.1397 163.14 84.5344 163.14C82.6677 163.14 81.2584 162.767 80.3064 162.02C79.3731 161.273 78.9064 160.163 78.9064 158.688C78.9064 157.475 79.3077 156.523 80.1104 155.832C80.9131 155.141 82.1544 154.665 83.8344 154.404C82.4157 153.396 80.9971 152.519 79.5784 151.772C80.6984 150.353 81.9771 149.28 83.4144 148.552C84.8517 147.805 86.5971 147.432 88.6504 147.432C91.5251 147.432 93.6531 148.057 95.0344 149.308C96.4344 150.54 97.1344 152.444 97.1344 155.02V158.352ZM89.2384 152.36C88.2864 152.36 87.4464 152.519 86.7184 152.836C85.9904 153.153 85.3371 153.629 84.7584 154.264C85.8784 154.133 87.2784 154.068 88.9584 154.068C89.6491 154.068 90.1344 153.984 90.4144 153.816C90.6944 153.648 90.8344 153.433 90.8344 153.172C90.8344 152.948 90.6944 152.761 90.4144 152.612C90.1344 152.444 89.7424 152.36 89.2384 152.36ZM86.2984 158.576C87.3437 158.576 88.2864 158.38 89.1264 157.988C89.9664 157.577 90.5451 157.045 90.8624 156.392V155.664C90.4144 155.888 89.9197 156.065 89.3784 156.196C88.8371 156.308 88.1837 156.42 87.4184 156.532L86.4104 156.7C85.3651 156.905 84.8424 157.26 84.8424 157.764C84.8424 158.305 85.3277 158.576 86.2984 158.576ZM110.86 163C110.972 160.256 111.028 157.727 111.028 155.412C111.028 154.591 110.823 153.937 110.412 153.452C110.02 152.967 109.516 152.724 108.9 152.724C108.284 152.724 107.762 153.004 107.332 153.564C106.903 154.105 106.651 154.852 106.576 155.804C106.539 157.223 106.52 158.231 106.52 158.828C106.52 160.097 106.558 161.488 106.632 163H99.9403C100.09 160.312 100.164 157.773 100.164 155.384C100.164 152.995 100.09 150.437 99.9403 147.712C101.172 147.768 102.115 147.796 102.768 147.796C103.459 147.796 104.402 147.768 105.596 147.712L106.408 151.828C106.838 150.335 107.51 149.233 108.424 148.524C109.339 147.796 110.403 147.432 111.616 147.432C112.736 147.432 113.707 147.684 114.528 148.188C115.35 148.673 115.966 149.336 116.376 150.176C116.806 151.016 117.02 151.959 117.02 153.004V157.036C117.02 159.519 117.067 161.507 117.16 163H110.86Z" fill="url(#paint2_linear_464_3288)"/>
<g clip-path="url(#clip0_464_3288)">
<circle cx="299" cy="57" r="26" stroke="url(#paint3_linear_464_3288)" stroke-width="8"/>
<line x1="299" y1="27" x2="299" y2="87" stroke="url(#paint4_linear_464_3288)" stroke-width="8"/>
<line x1="276.172" y1="77.1716" x2="300.172" y2="53.1716" stroke="url(#paint5_linear_464_3288)" stroke-width="8"/>
</g>
<defs>
<linearGradient id="paint0_linear_464_3288" x1="126.5" y1="0" x2="126.5" y2="104" gradientUnits="userSpaceOnUse">
<stop offset="0.677083" stop-color="white"/>
<stop offset="1" stop-color="white" stop-opacity="0.4"/>
</linearGradient>
<linearGradient id="paint1_linear_464_3288" x1="174" y1="93" x2="174" y2="134" gradientUnits="userSpaceOnUse">
<stop offset="0.677083" stop-color="white"/>
<stop offset="1" stop-color="white" stop-opacity="0.4"/>
</linearGradient>
<linearGradient id="paint2_linear_464_3288" x1="59.5" y1="130" x2="59.5" y2="171" gradientUnits="userSpaceOnUse">
<stop offset="0.677083" stop-color="white"/>
<stop offset="1" stop-color="white" stop-opacity="0.4"/>
</linearGradient>
<linearGradient id="paint3_linear_464_3288" x1="269" y1="87.0001" x2="329" y2="87.0001" gradientUnits="userSpaceOnUse">
<stop stop-color="#00FF57"/>
<stop offset="1" stop-color="#00FF57" stop-opacity="0"/>
</linearGradient>
<linearGradient id="paint4_linear_464_3288" x1="294" y1="27" x2="294" y2="87" gradientUnits="userSpaceOnUse">
<stop stop-color="#00E0FF"/>
<stop offset="1" stop-color="#00E0FF" stop-opacity="0"/>
</linearGradient>
<linearGradient id="paint5_linear_464_3288" x1="279.707" y1="80.7071" x2="304.5" y2="57" gradientUnits="userSpaceOnUse">
<stop stop-color="#FFF500"/>
<stop offset="1" stop-color="#FFF500" stop-opacity="0"/>
</linearGradient>
<clipPath id="clip0_464_3288">
<rect x="269" y="27" width="60" height="60" rx="30" fill="white"/>
</clipPath>
</defs>
</svg>
